<?xml version="1.0" standalone="no"?><!DOCTYPE svg PUBLIC "-//W3C//DTD SVG 1.1//EN" "http://www.w3.org/Graphics/SVG/1.1/DTD/svg11.dtd"><svg t="1616491038410" class="icon" viewBox="0 0 1024 1024" version="1.1" xmlns="http://www.w3.org/2000/svg" p-id="32370" xmlns:xlink="http://www.w3.org/1999/xlink" width="200" height="200"><defs><style type="text/css"></style></defs><path d="M793.6 321.349818a47.010909 47.010909 0 1 1-3.537455-68.514909c19.688727 18.013091 21.271273 48.546909 3.49091 68.514909z m113.570909-101.003636l-192.325818-161.047273a51.339636 51.339636 0 0 0-72.471273 6.237091l-192.698182 229.934545 51.665455 43.52 72.471273 61.44a23.505455 23.505455 0 0 1 2.792727 33.373091 23.877818 23.877818 0 0 1-33.326546 3.490909l-74.007272-59.578181-52.130909-43.426909-64.605091 78.336 41.518545 34.862545 47.755637 39.144727a23.877818 23.877818 0 0 1 2.792727 33.698909 23.086545 23.086545 0 0 1-33.326546 2.746182l-47.802181-39.191273-41.518546-34.443636-64.605091 78.336 52.084364 43.473455 71.68 60.322909a24.296727 24.296727 0 0 1 2.746182 33.698909 23.877818 23.877818 0 0 1-33.28 3.490909l-75.217455-59.904-51.665454-43.473455-128.139637 152.762182a51.665455 51.665455 0 0 0 8.192 72.890182l205.265455 173.521455a51.665455 51.665455 0 0 0 72.843636-6.283637l534.341818-638.091636a70.888727 70.888727 0 0 0-8.983272-99.84h-0.046546z" fill="#A5AEB7" p-id="32371"></path></svg>