<?xml version="1.0" standalone="no"?><!DOCTYPE svg PUBLIC "-//W3C//DTD SVG 1.1//EN" "http://www.w3.org/Graphics/SVG/1.1/DTD/svg11.dtd"><svg t="1616491026729" class="icon" viewBox="0 0 1024 1024" version="1.1" xmlns="http://www.w3.org/2000/svg" p-id="31804" xmlns:xlink="http://www.w3.org/1999/xlink" width="200" height="200"><defs><style type="text/css"></style></defs><path d="M739.979636 139.636364H284.020364A191.301818 191.301818 0 0 0 93.090909 330.472727v457.122909a191.301818 191.301818 0 0 0 190.929455 190.836364h455.959272A191.301818 191.301818 0 0 0 930.909091 787.549091V330.426182A191.301818 191.301818 0 0 0 739.979636 139.636364z m112.919273 191.767272v295.191273L455.586909 464.337455l97.000727-242.688h190.976a109.335273 109.335273 0 0 1 110.219637 108.450909v1.303272h-0.930909zM309.480727 900.468364l113.105455-345.088 431.197091 161.000727v74.333091A109.381818 109.381818 0 0 1 744.727273 900.468364H309.480727z" fill="#A5AEB7" p-id="31805"></path></svg>