<?xml version="1.0" standalone="no"?><!DOCTYPE svg PUBLIC "-//W3C//DTD SVG 1.1//EN" "http://www.w3.org/Graphics/SVG/1.1/DTD/svg11.dtd"><svg t="1616491028928" class="icon" viewBox="0 0 1024 1024" version="1.1" xmlns="http://www.w3.org/2000/svg" p-id="31944" xmlns:xlink="http://www.w3.org/1999/xlink" width="200" height="200"><defs><style type="text/css"></style></defs><path d="M512 539.322182a130.327273 130.327273 0 1 1 0-260.654546 130.327273 130.327273 0 0 1 0 260.654546m0-390.981818a260.654545 260.654545 0 0 0-260.654545 260.654545c0 143.965091 260.654545 409.6 260.654545 409.6s260.654545-265.634909 260.654545-409.6a260.654545 260.654545 0 0 0-260.654545-260.654545" fill="#A5AEB7" p-id="31945"></path><path d="M975.266909 940.171636l-148.945454-279.272727a18.618182 18.618182 0 0 0-16.430546-9.867636h-108.311273c-68.887273 96.349091-147.874909 178.269091-163.002181 193.629091l-26.53091 27.089454-26.624-27.042909c-15.127273-15.453091-94.114909-97.28-163.002181-193.629091H214.109091a18.618182 18.618182 0 0 0-16.430546 9.774546l-148.945454 279.272727a18.664727 18.664727 0 0 0 16.430545 27.461818h893.672728a18.618182 18.618182 0 0 0 16.430545-27.461818" fill="#A5AEB7" p-id="31946"></path></svg>