<?xml version="1.0" standalone="no"?><!DOCTYPE svg PUBLIC "-//W3C//DTD SVG 1.1//EN" "http://www.w3.org/Graphics/SVG/1.1/DTD/svg11.dtd"><svg t="1616491031178" class="icon" viewBox="0 0 1024 1024" version="1.1" xmlns="http://www.w3.org/2000/svg" p-id="32085" xmlns:xlink="http://www.w3.org/1999/xlink" width="200" height="200"><defs><style type="text/css"></style></defs><path d="M877.381818 202.658909L752.826182 78.196364c-17.361455-17.408-44.869818-17.408-60.788364 0L511.162182 259.118545c-17.361455 17.361455-17.361455 44.869818 0 60.788364l49.198545 49.198546-24.622545 24.622545-15.918546-15.918545a115.898182 115.898182 0 0 0-82.478545-33.28c-39.098182-31.883636-89.739636-36.212364-118.690909-7.261091-28.951273 28.951273-24.576 79.592727 7.261091 118.690909 0 30.394182 10.100364 59.345455 33.28 82.478545l15.918545 15.918546-24.622545 24.622545-49.198546-49.198545c-17.361455-17.361455-44.869818-17.361455-60.788363 0L59.578182 710.702545c-17.361455 17.361455-17.361455 44.869818 0 60.788364l124.462545 124.462546c17.361455 17.361455 44.869818 17.361455 60.788364 0l180.922182-180.922182c17.361455-17.361455 17.361455-44.869818 0-60.788364l-41.984-41.984 24.622545-24.576 55.016727 54.970182c14.429091-33.28 37.608727-66.56 66.56-95.511273 28.951273-28.951273 62.231273-52.130909 95.511273-66.56l-54.970182-55.016727 24.576-24.622546 41.984 41.984c17.361455 17.361455 44.869818 17.361455 60.788364 0l180.922182-180.922181a41.565091 41.565091 0 0 0-1.396364-59.345455z" fill="#A5AEB7" p-id="32086"></path><path d="M835.351273 515.304727a44.823273 44.823273 0 0 0-10.100364-7.261091s-1.442909 0-1.442909-1.396363c-2.932364-1.489455-4.375273-2.932364-7.261091-4.375273h-1.396364c-70.981818-39.098182-180.968727-11.589818-262.050909 69.492364-82.478545 82.478545-108.544 191.022545-69.445818 261.957818 1.442909 2.885818 2.885818 4.328727 4.328727 7.261091 0 0 0 1.396364 1.44291 1.396363 2.932364 4.375273 5.818182 7.261091 7.26109 10.146909 30.394182 20.293818 98.397091-5.771636 170.821819-63.674181l-36.212364-28.951273c-43.426909 34.769455-78.196364 53.573818-88.296727 44.869818-13.032727-13.032727 30.394182-78.149818 96.954182-144.756364 66.56-66.56 131.723636-109.986909 144.756363-96.954181 8.704 8.704-7.261091 39.098182-37.608727 78.196363l28.904727 36.165818c55.016727-69.492364 79.592727-133.166545 59.345455-162.117818" fill="#A5AEB7" p-id="32087"></path><path d="M661.690182 709.259636c-11.589818-8.704-11.589818-24.622545-1.442909-34.769454l4.328727-4.328727a23.645091 23.645091 0 0 1 34.722909 1.442909l39.098182 47.755636c8.704 11.636364 8.704 28.951273-1.442909 39.098182l13.032727-13.032727a28.904727 28.904727 0 0 1-39.098182 1.442909l-49.198545-37.608728z" fill="#A5AEB7" p-id="32088"></path><path d="M755.386182 728.762182a35.560727 35.560727 0 0 0-34.816 32.768c0 18.385455 14.336 32.721455 34.816 32.721454 18.385455 0 34.769455-14.336 34.769454-32.721454a34.071273 34.071273 0 0 0-34.769454-32.768" fill="#A5AEB7" p-id="32089"></path><path d="M841.355636 728.762182a107.985455 107.985455 0 0 1-35.84 80.849454c-22.528 22.528-52.224 33.792-84.992 33.792v47.057455c94.208 0 168.913455-72.610909 169.890909-161.698909h-49.058909z" fill="#A5AEB7" p-id="32090"></path><path d="M928.302545 727.738182c0 108.497455-93.090909 197.538909-207.732363 197.538909v47.057454c141.218909 0 256.884364-109.521455 256.884363-244.596363h-49.152z" fill="#A5AEB7" p-id="32091"></path></svg>