<?xml version="1.0" standalone="no"?><!DOCTYPE svg PUBLIC "-//W3C//DTD SVG 1.1//EN" "http://www.w3.org/Graphics/SVG/1.1/DTD/svg11.dtd"><svg t="1616491034792" class="icon" viewBox="0 0 1024 1024" version="1.1" xmlns="http://www.w3.org/2000/svg" p-id="32230" xmlns:xlink="http://www.w3.org/1999/xlink" width="200" height="200"><defs><style type="text/css"></style></defs><path d="M82.711273 591.36l-8.192 6.237091a40.029091 40.029091 0 0 0 0.093091 63.767273l403.316363 305.710545a55.854545 55.854545 0 0 0 66.792728 0.465455l402.338909-295.098182a46.592 46.592 0 0 0 7.307636-68.514909l-0.325818-0.325818a55.854545 55.854545 0 0 0-74.658909-8.052364l-334.987637 244.270545a55.854545 55.854545 0 0 1-66.606545-0.605091l-327.540364-247.947636a55.854545 55.854545 0 0 0-67.537454 0.093091z m842.612363-186.647273L542.626909 143.825455a55.854545 55.854545 0 0 0-62.976 0L96.954182 404.759273a55.854545 55.854545 0 0 0-1.442909 91.229091l382.696727 279.365818a55.854545 55.854545 0 0 0 65.861818 0l382.696727-279.365818a55.854545 55.854545 0 0 0-1.442909-91.229091z" fill="#A5AEB7" p-id="32231"></path></svg>