<?xml version="1.0" standalone="no"?><!DOCTYPE svg PUBLIC "-//W3C//DTD SVG 1.1//EN" "http://www.w3.org/Graphics/SVG/1.1/DTD/svg11.dtd"><svg t="1615449646749" class="icon" viewBox="0 0 1024 1024" version="1.1" xmlns="http://www.w3.org/2000/svg" p-id="14846" xmlns:xlink="http://www.w3.org/1999/xlink" width="200" height="200"><defs><style type="text/css"></style></defs><path d="M320 944a192 48 0 1 0 384 0 192 48 0 1 0-384 0Z" fill="#A9B8F1" p-id="14847"></path><path d="M416 944a96 32 0 1 0 192 0 96 32 0 1 0-192 0Z" fill="#7B94F2" p-id="14848"></path><path d="M512 32C317.568 32 160 186.144 160 376.64c0 95.232 39.392 181.344 103.2 243.68L512 864l248.8-243.68C826.88 555.488 864 467.904 864 376.64 863.744 186.144 706.176 32 512 32z m0 497.76c-41.696 0-81.6-16.32-110.816-45.024a150.528 150.528 0 0 1 0-216.224A159.424 159.424 0 0 1 512 223.488c41.696 0 81.6 16.32 110.816 45.024a151.552 151.552 0 0 1 45.76 108.128 149.504 149.504 0 0 1-45.76 108.096A160.32 160.32 0 0 1 512 529.76z" fill="#3860F4" p-id="14849"></path><path d="M512 529.76c-41.696 0-81.6-16.32-110.816-45.024a150.528 150.528 0 0 1 0-216.224A159.424 159.424 0 0 1 512 223.488c41.696 0 81.6 16.32 110.816 45.024a151.552 151.552 0 0 1 45.76 108.128 149.504 149.504 0 0 1-45.76 108.096A160.32 160.32 0 0 1 512 529.76z" fill="#FFFFFF" p-id="14850"></path></svg>