<?xml version="1.0" standalone="no"?><!DOCTYPE svg PUBLIC "-//W3C//DTD SVG 1.1//EN" "http://www.w3.org/Graphics/SVG/1.1/DTD/svg11.dtd"><svg t="1615358829865" class="icon" viewBox="0 0 1024 1024" version="1.1" xmlns="http://www.w3.org/2000/svg" p-id="2230" xmlns:xlink="http://www.w3.org/1999/xlink" width="200" height="200"><defs><style type="text/css"></style></defs><path d="M752.38035683 943.42021689c-161.05577017 0-322.11270542 0-483.16847558 0-8.05459285-2.06313131-16.63777678-2.97943154-24.07063552-6.39547278-27.56817806-12.67102265-40.74916295-35.03480263-40.77710564-65.09340786-0.0978011-104.72950443-0.03842162-209.45900885-0.03842162-314.18967723 0-1.42509739-0.11293696-2.85950862 0.01979278-4.27296313 0.26429554-2.82923691-0.81500615-4.19029789-3.75834396-4.56287232-15.85653419-2.00258787-28.76623758-9.71953493-39.89107712-20.84553842-43.57374179-43.57956381-87.13933483-87.16727751-130.75964928-130.70026979-9.95006578-9.93143694-16.90672811-21.46261447-19.92341732-35.27115435-0.48318237-2.21099577-1.08046563-4.39754297-1.62535538-6.59573191 0-4.98900423 0-9.97684451 0-14.96584875 0.28292323-0.42962489 0.76377771-0.83480007 0.82082816-1.29353158 2.14579541-17.26067371 10.95135915-30.7455397 23.06002831-42.80065024 58.70142805-58.43946155 117.21423986-117.06986723 175.73170972-175.69328811 2.8630016-2.86765853 5.37671453-6.15446414 7.66921159-9.50879801 12.79793152-18.72652174 30.40556487-29.68835982 53.06973298-30.20879986 33.29301731-0.76377771 66.61630521-0.32833081 99.92562233-0.24100864 2.32393273 0.00582201 4.74683051 1.13518819 6.94967751 2.12833166 11.82458083 5.32897792 23.30220089 11.56960029 35.43531975 16.04282141 39.67451819 14.62703901 80.77064078 19.36921259 122.88202866 16.22445169 39.7548544-2.96778752 77.38836309-13.0657189 112.39755093-32.45356032 2.34256157-1.29702457 5.35342877-1.94786531 8.05459286-1.95485126 34.37813987-0.0896512 68.75977273 0.23285874 103.13558471-0.05937949 19.8116443-0.16882233 36.63337927 6.40711566 50.53971911 20.29016974 61.7716736 61.66805163 123.61087659 123.26973895 185.11476281 185.20441401 27.44942023 27.64152832 27.19793266 68.61423616-0.22820181 96.24645063-44.04644637 44.37594112-88.33972224 88.50621667-132.59807062 132.67025693-9.90815118 9.88602937-21.58486642 16.75071261-35.52380586 19.38085546-7.68085447 1.44954709-7.67503246 1.48564082-7.67503247 9.21190286-0.00116395 109.19573959-0.03609259 218.39031637 0.02444971 327.58605597 0.01513586 27.31436146-10.85821611 48.47891683-34.43984726 62.77762503C773.38656768 939.74337309 762.93236281 941.7226752 752.38035683 943.42021689zM265.68406699 440.48201159c0 3.65122901 0 5.7341531 0 7.81707719 0 140.18927389 0 280.37854891 0.00232903 420.56782279 0 1.95950819-0.02095787 3.92018147 0.05355747 5.87736178 0.17464434 4.52328675 2.62664989 6.78900395 7.08822813 6.94967751 1.60090567 0.0582144 3.20530432 0.04657152 4.80853902 0.04657152 155.50906823 0.00232903 311.01697251 0.00232903 466.52604189 0 1.6032347 0 3.2087973 0.01746489 4.80737393-0.06403641 4.22289863-0.21539499 6.54217443-2.45549853 6.80181191-6.68188899 0.11992291-1.95252224 0.0663643-3.9166885 0.0663643-5.87619669 0.00232903-145.71152611 0.00232903-291.42305109 0.00232904-437.13457722 0-2.03984441 0-4.07968995 0-7.41306709 2.46714141 2.25291037 3.89223879 3.51500629 5.27542044 4.82134585 14.37904441 13.57102307 28.7545947 27.14553913 43.12432412 40.72820508 6.67839602 6.31164359 8.35032405 6.29883677 14.90763435-0.25847352 42.57128448-42.57594141 85.14023993-85.15537579 127.70803143-127.73364622 7.26403641-7.26636544 7.25937949-8.60181163-0.06752938-15.92988445-55.54618823-55.54851726-111.09354155-111.09586944-166.64205768-166.64322275-4.78641721-4.78641721-9.45174755-9.70439907-14.42794382-14.28473629-1.71849955-1.58227683-4.15187627-3.12962503-6.36287203-3.29611947-6.34075136-0.47619641-12.73622414-0.26895246-19.10957511-0.27360938-22.80038969-0.01513586-45.60310841-0.13156579-68.40117021 0.1141009-3.91785245 0.04191459-8.16520078 0.95006493-11.6743862 2.66157853-40.43363897 19.72315819-83.34373319 29.87814002-128.01889849 32.19159381-60.35006919 3.12496811-118.49962155-6.24062123-173.1201957-33.39081728-1.55084117-0.77076366-3.34036195-1.50077667-5.02160498-1.50659754-26.89754453-0.09314304-53.79625301-0.16416541-80.69146851 0.11060792-2.35071147 0.02444971-6.08693475 2.01772373-6.75407531 3.93881032-2.19585991 6.32212253-7.11500686 10.07115264-11.47179918 14.43027285-60.07878883 60.08461085-120.16339968 120.16339968-180.24218852 180.24917447-6.76106126 6.76222521-6.75756829 8.4492891 0.00349298 15.20918642 34.89159395 34.88810098 69.79017387 69.77154503 104.68642588 104.65498908 8.31423147 8.31190243 16.59702613 16.65640448 24.95782912 24.9217354 4.41151374 4.36144925 6.87865515 4.43014258 11.4380345 0.45058162 3.08538141-2.69301419 6.06248391-5.5117733 9.09197994-8.2688239C238.18458226 465.49689117 251.34228139 453.52910279 265.68406699 440.48201159z" p-id="2231"></path></svg>